<?xml version="1.0" encoding="utf-8"?>
<!-- Generator: Adobe Illustrator 21.0.0, SVG Export Plug-In . SVG Version: 6.00 Build 0)  -->
<svg version="1.1" id="Calque_1" xmlns="http://www.w3.org/2000/svg" xmlns:xlink="http://www.w3.org/1999/xlink" x="0px" y="0px"
	 viewBox="0 0 327 327" style="enable-background:new 0 0 327 327;" xml:space="preserve">
<style type="text/css">
	.st0{fill:#C72727;}
	.st1{fill:#FFFFFF;}
	.st2{display:none;}
	.st3{display:inline;}
</style>
<g id="Calque_1_1_">
	<circle class="st0" cx="162.9" cy="161.7" r="153.2"/>
	<ellipse class="st1" cx="163.5" cy="162.5" rx="128" ry="125.8"/>
	<g>
		<circle class="st0" cx="163.5" cy="163.4" r="118.5"/>
		<g>
			<g>
				<g>
					<g>
						<path class="st0" d="M284.4,162.5c0,1.1,0.4,0.7,0.5,0.9C284.8,161.5,284.3,162.5,284.4,162.5z"/>
						<polygon class="st0" points="281.9,144.2 282.2,144.5 281.3,141.9 						"/>
						<path class="st0" d="M278,127.5c-0.2,1.8,1.9,5.9,2.3,9v0.5l0.9,1.2c-0.5-1.8-1-3.9-1.6-5.8
							C278.8,130.6,278.3,128.8,278,127.5z"/>
						<path class="st0" d="M276.4,118.3c0,0.6-1-1.8,0.7,2c0-0.2-0.1-0.3-0.1-0.4C276.9,119.6,276.7,119.1,276.4,118.3z"/>
						<path class="st0" d="M277,119.9C277.7,121.6,276.8,118.7,277,119.9L277,119.9z"/>
						<path class="st0" d="M273.5,112.2l1.2,2.1c-0.1-0.5-0.9-2.5-0.5-1.8C273.1,110.3,273.2,110.8,273.5,112.2z"/>
						<path class="st0" d="M272.1,110.4c0.2,0.4,0.4,0.7,0.6,1.1C272.7,111.2,272.6,110.9,272.1,110.4z"/>
						<path class="st0" d="M274,113.8l-1.3-2.3c0,0.4-0.2,0.5,0.6,1.1C273,112.4,273.4,112.8,274,113.8z"/>
						<path class="st0" d="M274.6,115.2c0.4,1.3,1,2.9-0.2,0.8c0.9,2.1,1.4,3,1.5,2.8C275.9,118.6,275.5,117.3,274.6,115.2z"/>
						<path class="st0" d="M277,126.9c0.1,0.6,0.3,1.2,0.3,1.8l0.6,1.4c-0.2-0.4-0.3-1.2-0.5-1.9C277.3,127.4,277.1,126.8,277,126.9
							z"/>
						<path class="st0" d="M266.7,98.8c-0.2,0,0.1,0.9,0,1.2c0.4,0.5,0.7,1,1.1,1.4C267.4,100.6,266.6,99.1,266.7,98.8z"/>
						<path class="st0" d="M266.7,100l-1.7-2.1C266.3,99.9,266.7,100.2,266.7,100z"/>
						<path class="st0" d="M271.2,110.4c0.9,1.2,1.5,2.5,2.3,3.7c-0.9-1.5-1.7-3-2.7-4.4L271.2,110.4z"/>
						<path class="st0" d="M261,90.4c0.4,0.3,0.8,0.7,1.2,1l-1-0.9l-1-0.9L261,90.4z"/>
						<path class="st0" d="M256.7,85.1c1,0.7-0.6-1.5,0.3-0.7c-1.3-1.4-2.5-2.4-3.6-3.3C254.5,82.2,255.5,83.4,256.7,85.1z"/>
						<path class="st0" d="M251.5,79.7c0.6,0.5,1.2,1,1.9,1.5C252.8,80.6,252.2,80.1,251.5,79.7z"/>
						<path class="st0" d="M262.6,94.1c0-0.2-0.1-0.7-0.9-2l0.3,1.1C262.2,93.5,262.4,93.8,262.6,94.1z"/>
						<path class="st0" d="M262,93.3L262,93.3c-0.7-1-1.1-1.6-1.3-1.9C260.9,91.6,261.3,92.2,262,93.3z"/>
						<path class="st0" d="M262.8,94.3c-0.1-0.1-0.1-0.1-0.2-0.2C262.6,94.2,262.7,94.3,262.8,94.3z"/>
						<path class="st0" d="M268.3,104.1c-1-1.2-2.8-3.9-1.6-1C267.5,103.9,266.8,102.2,268.3,104.1z"/>
						<path class="st0" d="M263.1,95.7c0.5,0.8,1,1.6,1.5,2.4c0.1-0.1-0.1-0.6,0.4,0C264.3,97.2,263.7,96.4,263.1,95.7z"/>
						<polygon class="st0" points="262.2,94.6 263.1,95.7 262.5,94.8 						"/>
						<path class="st0" d="M254.5,83.5c-0.5-0.4-0.9-0.8-1.4-1.3s-1-1-1.5-1.5c1.1,1.2,2.1,2.5,3.2,3.7
							C255,84.4,255.6,84.8,254.5,83.5z"/>
						<path class="st0" d="M258.2,88.2c-0.1-0.1-0.1-0.1-0.2-0.2C258.1,88.1,258.2,88.2,258.2,88.2z"/>
						<path class="st0" d="M240.8,70.5c0,0.1,0.1,0.1,0.1,0.2h0.1L240.8,70.5z"/>
						<path class="st0" d="M254.9,84.6c0.7,1,1.3,1.4,1.8,1.9c-0.6-0.7-1.3-1.4-2-2.1C254.6,84.3,254.6,84.3,254.9,84.6z"/>
						<path class="st0" d="M248.5,76.8c0.4,0.5,0.9,1,1.3,1.7C249.5,77.9,248.7,76.9,248.5,76.8z"/>
						<path class="st0" d="M257.9,87.6l0.1,0.1C257.8,87.3,257.8,87.4,257.9,87.6z"/>
						<path class="st0" d="M257.9,87.6c-0.4-0.5-0.8-0.8-1.2-1.1c0.5,0.6,0.9,1.1,1.4,1.5C258,87.8,257.9,87.7,257.9,87.6z"/>
						<path class="st0" d="M235.6,69.9c0.2-0.1,1,0.3,1.9,0.9c0.5,0.3,1,0.7,1.5,1.1c0.5,0.5,1,1,1.4,1.5c2.2,1.5,1.8-0.6,0.4-2.7
							c-0.2,0.1-0.2,0.2-2.6-1.4c0.7,0.7,4.4,4.3,2.4,3.1c-1.4-1.1-2-1.6-2.4-2c-0.3-0.4-0.5-0.7-1.1-1.3c0.4,0.7-0.6,0.1-1.7-0.5
							s-2.3-1.2-2.2-0.7c0.9,0.5,1.8,1.1,2.7,1.7C236,69.8,235,69.2,235.6,69.9z"/>
						<path class="st0" d="M244.9,74.2l0.9,0.8c-0.9-1-1.5-1.7-2.6-3.1c-1.6-1.1-2-1.3-2.2-1.2c1.4,1.3,2.8,2.5,4.2,3.8L244.9,74.2z
							"/>
						<path class="st0" d="M249.5,78.5c-0.9-0.4-3-2.1-2.1-0.6c2.4,2.3,1.9,1.4,3.4,2.7C247,76.8,252,81.6,249.5,78.5
							c0.8,0.8,1.5,1.5,2.1,2.1c-0.6-0.7-1.2-1.5-1.8-2.2c0,0,0,0.1,0.1,0.1l0,0l0,0c0.1,0.2,0.2,0.3,0,0.1l-0.1-0.1
							C249.7,78.6,249.6,78.6,249.5,78.5c-1-1.2-0.1-0.3,0.3,0.1h0.1l0,0c-1.3-1.3-2.7-2.4-4.1-3.6
							C246.6,75.8,247.7,76.8,249.5,78.5z"/>
						<path class="st0" d="M264.5,101.1c-0.1-0.2,0-0.2,0-0.2C264.2,100.6,264.1,100.5,264.5,101.1z"/>
						<path class="st0" d="M263.5,99.1c0.3,0.3,0.6,0.5,1.2,1.6c0.5,1-0.2,0.1-0.3,0.2c0.5,0.6,1.7,2.1,0.6,0l-0.3-0.3
							c-1-1.9-2.1-4.5-1.8-4.3C263,97.1,263.1,97.7,263.5,99.1z"/>
						<path class="st0" d="M256.9,88.4c-1-1.2-2-2.2-3-3.3l1.2,2l0.1-0.2C256.7,88.9,256.5,88.3,256.9,88.4z"/>
						<path class="st0" d="M240.6,70h0.7c-0.8-0.4-1.6-0.8-2.4-1.1L240.6,70z"/>
						<path class="st0" d="M235.9,66.4l0.4-0.2c-0.5-0.3-0.9-0.5-1.4-0.7L235.9,66.4z"/>
						<path class="st0" d="M63.5,222.6l0.7,1C63.9,223.1,63.7,222.8,63.5,222.6z"/>
						<path class="st0" d="M59.1,214.4l-0.3-0.1C59.2,214.6,59.3,214.8,59.1,214.4z"/>
						<path class="st0" d="M99.8,60.5c-1.8,0.7-4,1.4-3.5,1.7H97C98.1,61.4,99,60.9,99.8,60.5z"/>
						<path class="st0" d="M47.3,140.1c0.1-0.2,0.2-0.3,0.2-0.5c0-0.5-0.1-0.9-0.1-1.3C47.4,138.8,47.3,139.4,47.3,140.1z"/>
						<path class="st0" d="M48.9,141.7l-0.7,2.4C48.4,143.6,48.6,142.8,48.9,141.7z"/>
						<path class="st0" d="M98.1,258.8c0.5,0.2,1,0.3,1.5,0.5C97.6,258,98.3,258.7,98.1,258.8z"/>
						<path class="st0" d="M180.7,43.7c-1.6-0.4-3-0.6-4.1-0.8C178.5,43.4,180.1,44,180.7,43.7z"/>
						<path class="st0" d="M57.7,221.6c0.5,0.7,0.7,0.9,0.8,0.9C58,221.8,57.7,221.4,57.7,221.6z"/>
						<path class="st0" d="M171.7,42.5c0.3,0.1,0.6,0.1,0.9,0.2c1.2,0,2.5,0,3.9,0.2C175.1,42.6,173.4,42.4,171.7,42.5z"/>
						<path class="st0" d="M259.7,228.3c0.1-0.1,0.2-0.2,0.3-0.3C259.9,227.9,259.8,228.1,259.7,228.3z"/>
						<path class="st0" d="M282.8,179.4c0,0.5-0.2,1.4-0.3,2.3C282.6,181.3,282.7,180.6,282.8,179.4z"/>
						<path class="st0" d="M215.7,54C216.9,54.5,215.9,54,215.7,54L215.7,54z"/>
						<path class="st0" d="M220.3,58.2c-0.3-0.1-0.5-0.1-0.5,0C219.9,58.1,220.1,58.2,220.3,58.2z"/>
						<path class="st0" d="M159.4,45h-0.1C159.6,45.1,159.6,45.1,159.4,45z"/>
						<path class="st0" d="M217.3,55c-0.4-0.3-0.9-0.6-1.4-0.8C216.2,54.3,216.6,54.5,217.3,55z"/>
						<path class="st0" d="M217.2,54.7c0.4,0.2,0.7,0.4,1,0.5C218.3,55.2,218.2,55.1,217.2,54.7z"/>
						<path class="st0" d="M214.1,53.3c0.7,0.3,1.3,0.6,1.8,0.9c-0.2-0.1-0.3-0.2-0.2-0.2C215.4,53.8,214.9,53.6,214.1,53.3z"/>
						<path class="st0" d="M178.9,279.6c0.1,0,0.2,0,0.3,0C180.3,279.2,179.8,279.3,178.9,279.6z"/>
						<path class="st0" d="M78.1,84.1c0,0,0-0.1,0.1-0.1C78.1,84.1,78.1,84.1,78.1,84.1L78.1,84.1z"/>
						<path class="st0" d="M75.4,87.6c0.8-1.7,1.5-2.5,2.6-3.4c-0.6,0.1-1.3,0.1-1.9,0.2L75.4,87.6z"/>
						<path class="st0" d="M76.7,240.4l-1.7-2.5c2.9,2.3,4.4,4.4,3,2c-0.3,0.1-1-0.3-1.8-1.1s-1.8-1.9-2.7-3s-1.8-2.3-2.6-3.1
							c-0.7-0.9-1.3-1.4-1.7-1.3l-0.9-1.8c0.3,0.5,0.4,0.5,0.8,1c-1.7-3.5-2.5-1.8-5-6.1c-0.8-1.5-1.2-2.7-0.5-1.8l-2.2-3.2
							c-0.5-1-0.2-0.9,0.3,0.1c-1-1.7-1.9-3.5-2.8-5.2H59c-0.6-0.7-1.6-2.3-2.2-3.1c-0.4-1.5,0.4,0.6,0.4,0.2
							c-0.5-1-1.1-1.9-1.6-2.9c-0.1-0.7,0.2-0.4,0.6,0.3c0.4,0.7,1,1.8,1.5,2.8c0-1.7-0.4-2.2-1-3.2c-0.5-1-1.4-2.4-2.2-5.6
							c0.4,1,0.9,1.9,1.3,2.8c0-1.1-0.3-2.1-0.6-3.4c-0.3-1.2-0.7-2.6-1.1-4.4c0,0.8,1.1,7-0.4,3.7c-0.2-1-0.6-2.2-1.5-4
							c0.5-0.2-0.2-1.9-0.8-4.2h0.7c-0.4-1.2-0.7-1.7-0.9-2.1s-0.5-0.7-0.8-1.4c-0.6-2.8-0.2-3.4,0.1-4.2c-0.7-4.4-0.2,3.2-1.3-2
							c-0.1-0.9-0.2-1.8-0.4-2.6c-0.1-0.8-0.2-1.7-0.4-2.5c-0.3-1.7-0.7-3.4-1-5.7c0-2.7,0.4,0.4,0.5-0.5l-0.7-2.3
							c0-0.6,0.1-0.4,0.2-0.3c-0.3-2-0.7-0.1-0.9-3.2c-0.3-0.4-0.2-2,0.1-4s0.5-4.3,0.3-6.2c0.3-0.9,0.4,0.5,0.6,0.2
							c-0.1-2.6-0.1-3.8-0.1-4.8s0-1.9-0.1-4.1c0.3-1.2,0.6-2.4,1-3.6c-1,2.6-0.9-0.9-0.8-4c-0.4,0.9-0.7,1.7-0.9,2.2
							c0.2-1.6,0.3-3.3,0.6-4.9c0.2-0.6,0.3,0,0.4,0.8c0-0.3,0-0.7,0.1-0.9c0.6-1.7,0.8-0.7,0.8,0.6c-0.3,0.6-0.5,1.1-0.8,1.6
							c0.2,1.3,0.4,2.5,0.8,2.3c0-0.3,0-0.9,0.1-1.6c0,0.3,0.1,0.5,0.2,0.4c0.1-0.1,0-0.7,0.1-1.5l0.9-0.9l-0.2-0.3
							c0.6-2,1.2-4.1,2-6c0.1-1.1,0.2-2.3,0.4-3.4s0.3-2.3,0.5-3.5c0.1-0.6,0.2-1.3,0.4-1.9c0.1-0.7,0.3-1.3,0.5-2
							c0.4-1.4,0.8-3,1.5-4.7c-0.3,1.9,0.6,0.7,1.2,1c-0.7,0.8-1.1,2.1-1.6,3.7c-0.2,0.8-0.5,1.6-0.7,2.5s-0.5,1.8-0.8,2.6
							c0.7-1.8,0.8-1.3,0.8-0.8c0.5-2.2,1.2-4.3,1.8-6.4c0.4,0.3,0.9-1.2,1.8-2.7c-0.7,0.4-0.4-0.8,0.3-2.4c0.2-0.4,0.3-0.8,0.5-1.3
							c0.2-0.4,0.4-0.9,0.6-1.3c0.4-0.9,0.8-1.7,1-2.3c0.4,0,0.4,0.7-1.2,3.6c2.3-2.9,1-4.8,3.4-7.6c-0.4,0.7-0.7,1.1-0.7,1.4
							c0.3-0.9,1.1-2.3,1.8-3.4s1.3-1.7,1.1-1.2l-0.4,0.7c0.7-1.1,1.7-2.5,2.6-4c1-1.5,2.1-3.1,3.1-4.5c2-2.9,3.7-5.3,3.6-5.9
							c0.1,0,0.3,1.2,0.3,1.6c1.3-3,2.7-6.1,4.3-9.1c-0.1,1.1,3.4,0,0.7,3.5c0.5-0.4,1-0.9,1.6-1.5s1.3-1.4,2.2-2.4
							c-0.7,0.5-2.3,0.8-1.5-0.1c3-1.7,1.9-1.3,5.4-3.5c-1.1,0.7-0.8-1.1,0.8-2.4c-0.1,0.3,0.9,0.7,0.4,1.3l1.6-2.1
							c0.5-0.7,1.1-1.4,1.7-2c-0.9,1,0.4,0.9,1.5,0.4c-0.3,0.1,0.6-0.6,1.7-1.4c1.1-0.8,2.4-1.7,2.9-2.1l-1.9,1
							c2.4-1.6,3.3-2.8,4.3-3.9c0.5-0.6,1-1.1,1.7-1.7s1.5-1.3,2.8-2c-0.5,0.6-0.8,2.1,1.8,0.8c0.8-1.2,3.8-5.4,8.4-8l1-0.1
							c1.2-0.7,2.3-1.3,3.5-1.9c-2,1.7-7.5,6.2-10.4,8.7c2-0.8,0.7,0.1,3.6-1.4c1.2-0.2-1.4,1.2-2.2,1.7c2.3-1.1,4.5-2.2,6.8-3.1
							c-0.3-0.2,0.9-1,2.2-1.7c1.3-0.7,2.6-1.3,2.3-1.5c-2.5,1.2-4.8,2.6-7.2,3.9c-0.3-0.2,0.6-1.1,2.2-2.3c0.8-0.6,1.7-1.2,2.9-1.8
							c1.1-0.6,2.3-1.1,3.6-1.6c1.4-0.3-0.5,1.5-0.3,1.7c0.3-0.2,1.4-0.8,2.6-1.3s2.3-0.9,2.6-0.9l-2,1.1c1.4-0.4,2.5-1,3.7-1.5
							c1.2-0.6,2.5-1,4.3-1.2c1.2-0.3,3.8-0.1,3.9-0.5c-2.1-0.3-3.1-2.5-1.9-3.4c0.2,0,1.9-0.2,3.7-0.4c0.9-0.1,1.8-0.2,2.6-0.2
							c0.8,0,1.5,0,1.8,0c2.1,0.2-2.8,2-1,2.2c0-0.2,1.1-0.6,1.6-0.8c1.3-0.1-0.4,0.7,2.3,0.1c0.4-0.7,5.7-0.7,1.2-0.7
							c1.4-0.3,2.1-0.3,2.9-0.4c0.8,0,1.7-0.1,3.3-0.2c-0.5-0.2,0.2-0.6,1.3-1c1.2-0.4,2.9-0.9,4.3-1c-0.2,0.2,0.5,0.4,0.8,0.5
							c1.4,0,2.7,0,3.9,0c1.2,0,2.3,0.1,3.3,0.2c1.1,0.1,2.1,0.1,3.3,0.2c1.1,0.1,2.3,0.2,3.6,0.3c0.5,0.2,3,0.6,1.9,0.8
							c0.8,0,1.5-0.2,3.1,0c3.1,1-3.6-0.4-1.3,0.6c0.2-0.3,4.3-0.1,6.6,0.2c-0.3-0.3-1.6-0.7-3.2-0.8c-1.6-0.1-3.3-0.2-4.5-0.2
							c0-0.4,1.1-0.7,2.9-0.9c0.9-0.1,1.9-0.1,3.1-0.1c1.2,0.1,2.5,0.2,3.9,0.3c2.2,0.3,2.7,0.6,2.7,0.7S188.6,47,189,47
							c2,0.5,3.5,0.8,4.7,0.9c1.2,0.2,2,0.3,2.9,0.3c0.8,0.1,1.6,0.1,2.6,0.4c1,0.2,2.1,0.7,3.8,1.4c2.5,1.4-0.2,1,0.2,1.6
							c-1.8-0.5-3-1-4.2-1.5c-1.2-0.4-2.2-0.9-3.4-1.2l2.8,1.1c-1.2-0.1-3.5-0.7-4.8-1.2c0.5,0.3,1.6,0.7,3.1,1.1
							c0.7,0.2,1.6,0.5,2.4,0.7c0.9,0.3,1.8,0.6,2.7,0.9c1,0.3,1.9,0.7,2.9,1c1,0.4,1.9,0.8,2.9,1.2c1.9,0.7,3.6,1.6,5.1,2.4
							c1.1,0.3,3,1,2.2,0.4l-1.9-0.8c-1.5-1.2,3.8,1,1.5-0.2c1.3,0.4,2.7,0.9,4.2,1.6c0.7,0.3,1.5,0.7,2.3,1
							c0.8,0.4,1.6,0.9,2.4,1.4l0.3,0.9c0-0.2-2-1.6-3.1-2c0.8,0.3,2,1.2,3.2,2.1c0.6,0.4,1.2,0.9,1.8,1.2c0.6,0.4,1.1,0.6,1.6,0.7
							c-0.7-0.6-1.4-1.2-2.1-1.8c1.3,0.5,2.7,1.2,4.2,2c1.5,0.7,3,1.6,4.3,2.7c-0.9-1.4-0.7-0.4-2.3-2.4c1.3,1.9-7.5-4.8-5.1-2.2
							c-0.9-1-1.8-1.6-2.8-2.3c-1-0.7-2.1-1.4-3.4-2.4c0,0.2,0.9,0.9-1.7-0.5c-0.1,0-0.5-0.1-0.7-0.1c-0.1,0-0.1-0.1-0.2-0.1
							l0.1,0.1c-0.1,0-0.1,0,0,0c0.6,0.4,1,0.7,1.2,1c-0.8-0.1-2.1-0.7-3.6-1.3c-1.4-0.6-2.9-1.1-3.6-1.4c-1.5-0.8,0.7,0.1,0-0.5
							c-0.8-0.2-1.5-0.4-2.3-0.6c0-0.5-4-2.4-0.1-1.1l-3.4-1.4c-1.9-1-4.8-2-6.6-2.4c-1.6-0.6-4.4-0.7-2.8-0.6
							c-0.9-0.2-1.9-0.4-2.8-0.6l-2.8-0.5v-0.1c-2.8-0.7-5.7-1-8.7-1.4c-3-0.3-6.1-0.8-9.3-1.3c-1,0-1.9,0-3.1-0.1
							c-1.1,0-2.4,0-4-0.1l-0.6-0.4c-1.2,0-3.1,0-4.8,0c-1.7,0-3.2,0-3.7,0.2c-0.7-0.2-1.8-0.3-3.1-0.2c-0.7,0-1.4,0-2.1,0.1
							c-0.8,0.1-1.5,0.2-2.3,0.3c-1.6,0.2-3.2,0.5-4.7,0.8s-2.9,0.6-4,0.7l-0.1,0.5c-1.5,0.2-2.9,0.6-4.4,1
							c-0.7,0.2-1.5,0.4-2.3,0.6s-1.6,0.5-2.5,0.8l0.3,0.4c-1.5,0.6-3.5,1-5.6,1.7c-1.1,0.3-2.2,0.6-3.4,1c-1.2,0.4-2.3,0.8-3.5,1.3
							c0.3-0.3,1.5-0.7,2.3-0.9c-1.5,0.3-3,0.8-4.4,1.4s-2.8,1.4-4.2,2.1c-1.4,0.7-2.7,1.6-4,2.3c-1.3,0.7-2.6,1.3-3.9,1.9
							c-1.1,0.8-2,1.3-2.9,1.6c0.1-0.1,0.2-0.1,0.3-0.2c-0.1,0.1-0.3,0.2-0.5,0.3c-0.6,0.2-1.1,0.5-1.7,0.8c0.5-0.2,1-0.4,1.5-0.6
							c-0.9,0.5-2.2,1.5-3.4,2.4h-0.8C97,63,96.9,63,96.8,63.1c-1.4,0.7-0.9,0.9,0,0.7c-0.6,0.5-1.1,1-1.5,1.4
							c-0.7,0-1.5,0.7-2.4,1.4c-0.9,0.7-1.7,1.4-2.6,1.6c-0.3,0.5-1.8,1.8-3.2,3c-1.4,1.4-2.7,2.7-2.7,3.3c-0.1,0-0.5,0.2,0.1-0.3
							c-1.4,1-2.7,2.2-3.6,3.4l-1,0.1l-1.1,1.6l-1,1.6c-1.8,1.4-2.7,1.9-1.4,0c-1.7,2.2-2.3,3.1-2.9,3.9c-0.6,0.8-1.2,1.5-2.4,3.5
							l-0.2-0.4c-1,1.3-2.2,3.7-3.1,4.3c-0.7,0.6-1.7,1.9-3,3.5c-0.6,0.8-1.3,1.8-1.9,2.8c-0.7,1-1.4,2.1-2.1,3.2
							c-2.8,4.6-5.6,10-7.8,14.3c0.9-0.6,0.3,0.3-0.4,1.6c-0.7,1.2-1.5,2.7-1.1,3.1c-0.5,0.4-1.1,1.6-0.8,0.1
							c-0.8,2.3-1.4,4.1-2,5.6s-1,3-1.1,4.7c-0.4,0.5-0.1-1.1-0.4-0.7c-0.1,0.4-0.2,1.6-0.5,2s0-0.8,0.1-1.5
							c-0.3,1.2-0.5,2.2-0.7,2.9c-0.1,0.8-0.1,1.3,0,1.8c0.1,0.9,0.5,1.2,0.8,1.4c-0.5,1.2-0.8,2.1-0.9,2.9c-0.1,0.9-0.1,1.6,0,2.6
							c-0.4,0.8-0.9,2.2-0.5-0.9c-0.1,0.4-0.3,1.3-0.5,2.4c-0.1,0.5-0.2,1.1-0.3,1.7s-0.2,1.2-0.3,1.8c-0.3,2.5-0.5,4.7-0.2,4.8
							c-0.2,0.5-0.2,2.4-0.2,2.9c-0.2,1.9-0.3,3-0.3,4.1s-0.1,2.1-0.1,4l0.1-1.1c0.7,1.5,0.2,3.2,0.3,6.3l-0.1-0.1
							c-0.1,1.8-0.1,2.9,0,3.6c0,0.7,0.1,1.1,0.2,1.5c0.1,0.4,0.1,0.7,0.1,1.5c0,0.4,0,0.8,0,1.4s0.1,1.3,0.1,2.2l0.4-0.4
							c0.6,0.3,0.6,1.8,0.6,3.8c0.1,2,0.2,4.4,0.8,6.4v-1.5c0.3,1.1,0.4,2.6,0.3,4.2c0,1.6-0.2,3.3,0.1,4.4c0.1,0.5-0.4-0.7-0.6-1.4
							c1,5.8,0.8,0.6,2.1,4.7c-0.1,0.9-1.1-0.7-0.3,2.1c0.1,0.7,1,2.7,2.1,4.9c0.6,1.1,1.1,2.3,1.6,3.4c0.2,0.6,0.5,1.1,0.7,1.7
							c0.2,0.5,0.4,1.1,0.5,1.6c-0.1-0.9-0.2-1.8,0.8,0c1.3,2.8,2.7,8,4.8,10.1c0.1,0.4,0.1,0.5,0.1,0.6c0.7,1,1.7,2.6,2.8,4.1
							s2.1,2.8,2.7,3.3c-0.1,0.7,0.5,1.7,1.4,3c0.8,1.2,1.9,2.6,3.1,3.9c1.1,1.3,2.2,2.5,3,3.4s1.2,1.6,0.9,1.8
							c0.8,0.9,1.6,1.8,2.4,2.7l2.6,2.6H77c1.6,1.8,2.8,2.7,3.7,3.5c1,0.7,1.7,1.2,2.4,1.6c0.7,0.8,0.1,0.4-0.1,0.4
							c2.5,2.3,3.8,3.7,5.3,4.6c1.4,1,2.8,1.9,5.3,3.2l0.2,0.7c1.3,0.7,7.7,6.3,14,8.8c-0.1,0-0.3,0-0.8-0.1c3.5,1.5,7.4,3.7,11,5.4
							s6.8,2.7,8.3,2.3c1.6,0.4,3.3,0.7,4.9,1c-6.1-1.9,1.1-0.5-1.3-1.5c1.2,0.3,2.7,0.9,3.6,1.3c0.9,0.4,1,0.6-0.5,0.3l-0.4-0.2
							c-1.4,0.7,7.6,2.2,7.4,2.7c6.2,1.2,12.4,2,18.5,2.4c1.5,0.1,3.1,0.1,4.6,0.2c1.5,0,3,0,4.6,0c0.8,0,1.5,0,2.3,0
							s1.5-0.1,2.3-0.1c1.5-0.1,3-0.2,4.5-0.4c-0.5-0.2-1-0.4-1.4-0.6c1.4-0.1,2.7-0.3,4.1-0.5c1.1,0,1.5,0.4-1.4,0.7
							c1.6,0.2,4.9-1,4.9-1.2c5.7-0.7-2.1,1.2-0.3,0.9l2.4-0.5h-0.6c0.9-0.3,1.4-0.6,2.1-0.8c0.3-0.1,0.7-0.2,1.3-0.4
							c0.5-0.2,1.2-0.3,2-0.5c2.2-0.4,1.2,0.2,2.1,0c0,0.1,0.3,0,1.3-0.3c1.7-0.4,3.4-0.9,5.1-1.3h-2.2c2.1-0.9,4.7-1.3,2.2-1.3
							c1.8,0,6.5-1.4,10.8-3.2c2.2-0.9,4.2-1.9,5.9-2.6c1.7-0.8,2.9-1.5,3.4-1.6c0.7-0.5,1.4-0.9,2-1.3c0.7-0.4,1.4-0.9,2.1-1.3
							c1.4-0.9,3-1.7,4.7-2.8c-0.9,0.4-1.7,0.2,1.2-1.6c-0.2,0.9,1.3,0.2,3-0.9c1.7-1.1,3.9-2.5,5.2-3c-1.2,0.5,0.7-1,2.4-2.5
							c1.7-1.5,3.2-2.9,1.4-2c2.2-1.8,0.5,0.3,2.3-0.9c4.7-4.8,11.1-10.1,16.1-16.9c-0.1-0.2-1.1,0.7-0.2-0.8c1.2-1,2.2-2,3.3-3
							c0.4-0.7,0.5-1.2,0.6-1.7c0.2-0.5,0.5-1.2,1.6-2.3c-0.4,0.3-0.9,0.7-0.3-0.3c4.8-6.6,8.6-14.2,11.5-22.1
							c3-7.9,5.2-16,7.3-24.1c-0.7,2.2-0.5,0.7-0.2-1c-0.3,1.1-0.4-0.1-0.7,0.1c0.5-2.3,1.1-4.5,1.5-6.8c-0.3-0.7-0.2-2.5,0-4.3
							c0.1-1.8,0.1-3.5-0.2-3.9l0.1,2.2c-0.3-1.5-0.8-0.5-1.3,0.8s-1.1,2.9-1.6,2.6c0.2,0.8,0.1,1.7,0,2.8c-0.2,1-0.5,2.1-0.7,3.3
							c-0.5,2.3-1.2,4.8-1.1,7.5c-0.4,1.1-0.1-1-0.5-0.5c0.2,1.4-0.1,3-1,5.8v-0.4c-0.4,2.1-1,3.8-1.4,5.3c-0.4,1.6-1,3-1.6,4.5
							c-0.6,1.5-1.1,2.9-1.9,4.6c-0.7,1.6-1.5,3.5-2.5,5.5l0.7-0.4c-0.9,1.8-1.2,2.1-1.7,2.9c-0.3,2.4,2.4-5.1,2.2-2.9
							c-0.5,0.5-1.1,1.6-1.8,2.9c-0.7,1.3-1.5,2.9-2.3,4.4s-1.7,3-2.4,4.1c-0.8,1.2-1.4,2-1.9,2.2c-1.7,2.6,1-0.5-0.7,2.1l-0.7,0.5
							l-0.1,0.9c-1.1,1.7-2.1,2.3-2.3,2.2c0.3-0.4,0.8-1.2,1-1.6c-0.9,1-1.9,2.5-2.8,3.9s-1.8,2.5-2.1,2.8c0.7-0.7,1.3-1.5,2-2.2
							c-1.2,1.7-2.6,3.5-4,5.2c-1.5,1.7-3,3.5-4.6,5.2c-0.8,0.8-1.6,1.7-2.4,2.5s-1.6,1.6-2.4,2.4c-1.6,1.6-3.2,3.1-4.6,4.5l0.6-0.2
							c-0.6,0.5-1,1-1.5,1.4c-0.4,0.4-0.8,0.7-1.2,1c-0.7,0.5-1.2,0.9-1.8,1.3c-0.5,0.4-1.1,0.8-1.9,1.3s-1.8,1.2-3.1,2.3l0.2-0.2
							c-1,1-2.5,2.1-4.1,3.1c1.3-1.2-3,1.3-1.3-0.1c-2.8,2-3.5,2.4-3.9,2.8c-0.4,0.4-0.5,0.7-2.3,2.1l-1.1,0.1
							c-0.6,0.5-0.9,0.8-1.5,1.2c-0.5,0.4-1.3,0.9-2.9,1.6c2.4-1.5-2.2,0.4,0.5-1.3c-1.7,0.6-3.2,1.2-4.4,1.7
							c-1.3,0.6-2.4,1.1-3.4,1.5c-2,1-3.5,1.6-5.3,1.6c-1.4,1,0.1,0.7,1.8,0.1c1.7-0.5,3.4-1.3,2.6-0.8c0.8-0.1,0.2,0.3-0.8,0.9
							c-1.1,0.5-2.6,1.1-3.7,1.4c-1.1,0.4-2.1,0.4-3.6,0.4c-0.7,0-1.6,0.1-2.5,0.3c-0.5,0.1-1,0.2-1.6,0.3s-1.2,0.2-1.9,0.4
							c0.6-0.1,0.6-0.2,1.1-0.3c-1.1,0.1-2.1,0.4-3.2,0.8c-0.5,0.2-1.1,0.3-1.7,0.4c-0.6,0.1-1.2,0.2-1.9,0.2
							c-1.3,0.9-3.4,0.6-3.7,1.4l5.2-1.1c-1.5,0.4-2.8,0.9-4.5,1.4s-3.6,0.8-6.1,0.9c0.4-0.2,1.8-0.6,2.8-0.8
							c-1.5-0.1-2.8,0.6-4.3,0.4c0.2-0.4,1.8-0.6,3.7-0.9c1-0.1,2-0.3,3-0.4c1-0.2,1.9-0.5,2.7-0.8c-0.8,0-2.3,0.4-3.4,0.6
							c-1.1,0.2-1.8,0.3-1.1-0.2c-1.1,0.7-2.5,0.8-4.1,1c-1.6,0.1-3.4,0.1-5.4,0.7l0.2-0.5c-0.6,0.1-1.9,0.4-3,0.4l2-0.7
							c-3.1,0.6-6.1-0.2-9.1-0.1c3.2,0.1,3.5,0.2,3.4,0.4s-0.7,0.4,0.7,0.6c-7.9,0.5-4.5-1.2-13.2-1.6c1.2,0.1,4.4,0.6,2.5,0.7
							c-0.8-0.1-1.8-0.2-2.6-0.4c-0.9-0.2-1.6-0.4-2.1-0.6c-5.7-0.6,0.8,0.6-1.7,0.6c-1.9-0.8-2.8-0.2-5.4-0.5l0.1-0.5
							c-0.8-0.2-1.4-0.3-1.9-0.4c-0.5-0.1-0.9-0.2-1.2-0.2c-0.6-0.1-0.8,0-1,0.1c-0.4,0.2-0.7,0.3-3.6-0.5l2.6-0.1
							c-1-0.2-2-0.3-3.1-0.6c0.3-0.1,0.5-0.2,0.8-0.4c-1.7-0.2-2.8-0.5-3.8-0.8c-1.1-0.3-2.1-0.6-3.6-1.3c0.6,0.6-0.7,0.7-3.5-0.2
							c-1.8-1,1.2,0-2.7-1.5c1,0,2,0.1,3.6,1.1c0.2-0.1,1,0,1.2-0.1c-1.9-0.9-5-1.9-6.4-2.5c0.5,0.2,1.2,0.5,1.5,0.7
							c-1-0.3-1.9-0.5-2.9-0.8l-2.9-0.9c-0.8-0.6,0-0.4,0.7-0.2c-1.1-0.5-2-0.6-3.6-1.3c0.6-0.1,0.6-0.5,3,0.3
							c-1.8-0.6-3.5-1.4-5.3-2.1c-0.3-0.3-2.4-1.8-1.6-1.5c-1.3-0.9-3.1-1.7-4.9-2.6c-1.8-1-3.8-2-5.4-3.3c-0.2-0.1-0.6-0.3-1.4-0.7
							c-0.8-0.6-1.5-1.2-2.3-1.8c-0.7-0.6-1.4-1.2-2.2-1.9c-0.7-0.6-1.5-1.2-2.4-1.9c-0.8-0.7-1.7-1.3-2.7-2c-0.5-0.8-1-1.5-1.5-2.3
							c-2.8-2.4,2,3.1-2.6-0.9c-3.3-2.8-0.8-1.5-1.7-2.7c-0.9-0.6-2.1-1.5-3.4-2.7c-1.3-1.1-2.5-2.6-3.6-4.3
							C75.2,238.6,75.8,239.5,76.7,240.4z M53.6,201.8c0.2,0.4,0.5,1,0.7,1.6c0.3,0.6,0.5,1.1,0.5,1.5
							C54,204.1,53.9,203.3,53.6,201.8z M49.7,133.7c0,0.7-0.3,1.6-0.8,2.7C49.2,135.6,49.4,134.7,49.7,133.7z M202.9,49.1
							C202.9,49.1,202.8,49.1,202.9,49.1C200.9,48.3,201.6,48.6,202.9,49.1z M206.8,50.8c0.4,0.1,0.4,0,0.3-0.1
							c-0.3,0-1.2-0.3-2.2-0.8C205.1,50.1,205.6,50.4,206.8,50.8z M192.3,280.3l-0.8,0.1C193.3,279.9,192.8,280.1,192.3,280.3z"/>
						<path class="st0" d="M48.7,141.5c-0.1,0.2-0.2,0.3-0.3,0.3C48.4,142.2,48.5,142.2,48.7,141.5z"/>
						<path class="st0" d="M97.8,258.7l0.1,0.1c0.1,0,0.1,0,0.2,0L97.8,258.7z"/>
						<path class="st0" d="M143.3,48.6c-0.8,0.1-1.3,0.1-1.6,0C141.7,48.8,142.1,48.8,143.3,48.6z"/>
						<path class="st0" d="M227.2,60c-0.8-0.5-1.6-0.9-2.4-1.3c1.1,0.6,1.5,0.9,2,1.4C226.8,59.9,226.5,59.5,227.2,60z"/>
						<path class="st0" d="M243.9,76.4c0.3,0.2,0.6,0.6,0.9,0.8l0.1-0.2C243.7,75.8,242.8,75.2,243.9,76.4z"/>
						<path class="st0" d="M228.5,62.7c0,0.2,0.3,0.5,0.9,0.9s1.3,0.8,2.1,1.3c-0.1-0.1-0.2-0.1-0.3-0.2c0.4-0.1,0.1-0.4-0.4-0.8
							C230.2,63.6,229.3,63.1,228.5,62.7z"/>
						<path class="st0" d="M231.9,65.2c0.5,0.3,1,0.7,1.4,1C233.6,66.1,232.7,65.7,231.9,65.2z"/>
						<path class="st0" d="M211.9,52.6c0.8,0.5,0.7-0.2,1.1,0.1c0.6,0-0.9-0.5-1.9-0.7c-0.5-0.1-0.9-0.2-0.9-0.1
							C210.3,51.9,210.7,52.1,211.9,52.6z"/>
						<polygon class="st0" points="229,64.6 228.7,63.8 227.6,63.6 						"/>
						<path class="st0" d="M216.5,57l2.6,1.5c0-0.1,0.4,0,0.8,0.2C218.2,57.8,216.5,56.8,216.5,57z"/>
						<path class="st0" d="M219.8,58.6c0.8,0.5,1.6,0.9,2.1,1.1C221.5,59.5,220.6,58.9,219.8,58.6z"/>
						<path class="st0" d="M225.5,62.6l-0.7-0.6l-1.8-1.1C223.8,61.5,224.7,62,225.5,62.6z"/>
						<path class="st0" d="M186.3,46.6l-3.2-0.4c-0.4,0.1,0.5,0.4,1.7,0.5C185.5,46.7,186.7,46.8,186.3,46.6z"/>
						<path class="st0" d="M195.5,50.2c-0.8-0.3-0.8-0.5-1.3-0.8l-0.3,0.6L195.5,50.2z"/>
						<path class="st0" d="M186.3,48.1c-0.4,0.1-4.7-0.3-0.7,0.3C186,48.4,189.2,48.8,186.3,48.1z"/>
						<polygon class="st0" points="138.1,47.9 138.9,47.7 138.6,46.7 						"/>
						<path class="st0" d="M100.1,66.4c3.3-1.8,0.4-1,3.4-2.6c0.6-0.7-2.5,1.3-1.8,0.6C99.9,65.9,98.9,66.4,100.1,66.4z"/>
						<path class="st0" d="M101.7,64.5c0.3-0.2,0.6-0.5,0.9-0.8C102.1,64.1,101.9,64.3,101.7,64.5z"/>
						<path class="st0" d="M284.2,170.3c0.2-0.8,0.2-1.7,0.3-2.5l-0.4,1.6C284.2,169.7,284.2,170,284.2,170.3z"/>
						<path class="st0" d="M283.6,165.5l0.7-0.6l-0.5-1.5C283.8,164,283.8,165.1,283.6,165.5z"/>
						<path class="st0" d="M52.9,195l-0.2-0.1c-0.1,0.4,0.1,0.9,0.4,2L52.9,195z"/>
						<polygon class="st0" points="65.7,224.8 65.4,224.3 65.4,225.5 						"/>
						<path class="st0" d="M83.3,245.5c-0.8-0.8-1.8-1.6-2.5-2.5C82.5,244.8,83.1,246.3,83.3,245.5z"/>
					</g>
				</g>
			</g>
		</g>
	</g>
</g>
<g id="Calque_3">
	<g>
		<g>
			<path class="st1" d="M262.5,178.6c-8.3-18.9-34.3-24.6-52.8-25.2c-7.5-0.2-15.1-0.5-22.6-0.7c0.9-0.3,1.8-0.6,2.7-1
				c11.7-4.5,22.8-12.5,32.7-20c10.3-7.8,20.2-19,20.9-32.5c0.9-17.6-15.2-28.8-29.6-34.9c-0.1,0-0.2-0.1-0.2-0.1
				c-0.1,0-0.2-0.1-0.2-0.1c-11.8-4.8-25.1-4.8-37.6-3.6c-9.4,0.9-18.7,2.5-27.9,4.5c-0.1-5.5-0.2-11-0.3-16.5
				c-0.2-12.4-0.4-24.9-0.6-37.3c0-1.4-1.3-2.2-2.6-2c-2.8,0.4-5.5,0.9-8.3,1.3c-1,0.2-1.5,0.9-1.5,1.6c0,0.1,0,0.2,0,0.3
				c0.3,18.5,0.6,37,1,55.5c-2.3,0.6-4.7,1.2-7,1.9c-30.4,8.4-59.7,19.8-89.5,29.8c-5.4,1.8-11.4,2.9-16.7,5
				c-4.5,1.8-5.2,9-6.2,13.3c-0.3,1.5,0.9,3,2.5,2.5c39.6-11.9,77-30.5,117.1-40.5c0.2,11.5,0.4,22.9,0.6,34.4
				c0.2,13.5,0.5,27,0.7,40.5c-1,0.2-1.9,0.3-2.9,0.5c-3.2,0.6-7.1,1.3-8.7,4.5s2.7,6.3,5.2,7.8c2.1,1.3,4.4,1.9,6.7,2
				c0.5,30,1,60,1.5,90c-13.6,3.5-27.4,6.6-41.1,9.6c-10.4,2.3-21.6,3.9-31.6,7.8c-1.3,0.5-2.2,2.3-0.9,3.4c2.1,1.8,5.3,6.1,8.2,6.3
				c2.3,0.1,5.5-1.5,7.8-2c8.7-2.2,17.5-4.3,26.3-6.5c10.5-2.6,21-5.2,31.5-7.9c0,2.2,0.1,4.3,0.1,6.5c0.2,12.5,0.4,25,0.6,37.5
				c0,1.2,0.9,1.9,2,2c2.8,0.3,5.5,0.7,8.3,1c1.1,0.1,2.1-1,2-2c-0.3-16.1-0.5-32.2-0.8-48.2c9.4-2.5,18.8-5.1,28.1-7.9
				c11-3.3,21.9-6.7,32.6-10.8c7.2-2.8,14.7-5.7,20.9-10.3c11-8,21.7-20.5,27.6-32.8C264.5,197,266.4,187.4,262.5,178.6z
				 M150.3,211.9c-0.2-14.6-0.5-29.2-0.7-43.7c11.8-1.6,23.7-2.1,35.6-1.6s24.8,0.7,36.4,3.8c7.7,2.1,15.2,6.2,19,13.4
				c6.3,11.8,0.8,25.6-7.9,34.5c-10.1,10.3-23.6,17.1-36.7,22.8c-14.5,6.2-29.7,11-44.9,15.3C150.8,241.5,150.6,226.7,150.3,211.9z
				 M149.3,151.6c-0.4-24.8-0.8-49.7-1.3-74.5c1.9-0.4,3.8-0.7,5.7-1.1c18.8-3.3,43.4-7.5,60.2,4.7c3.7,2.7,7.3,6,9.6,10
				c4.4,7.8,2.4,16.5-2.7,23.4c-7.1,9.5-18.7,15-29.2,20c-12.9,6.1-26.2,11.5-39.5,16.5C151.2,150.9,150.2,151.3,149.3,151.6z"/>
		</g>
	</g>
</g>
<g id="Calque_4" class="st2">
	<g class="st3">
		<path class="st1" d="M121.5,255.2l-8.2,19.3L92.6,90.6l76.5-6c17.7-1.4,32.4,1.3,44.1,8c12.1,7,18.7,17.2,19.7,30.5
			c0.7,8.8-1.6,16.8-6.9,24c-5.3,7.1-12.8,12.4-22.5,15.8c24.3,4.8,37.2,17.3,38.8,37.4c1.1,14.4-3.6,26.1-14.3,35.1
			c-10.3,8.5-24.8,13.4-43.5,14.9l-38.2,3l-0.9-11.2l36.5-2.9c14.4-1.1,25.5-5.1,33.4-11.8c8.3-6.7,12-15.4,11.2-25.9
			c-0.8-10.7-5.9-18.7-15.1-24.1c-8.8-5.2-20.5-7.3-34.9-6.1l-36.5,2.9l-0.9-11.4l34.2-2.7c13.6-1.1,24.3-4.4,32.1-10
			c8.7-6.3,12.6-14.9,11.8-25.7c-0.8-10.7-6.1-18.6-15.7-23.6c-8.6-4.3-19.7-5.9-33.3-4.9l-59,4.7L121.5,255.2z"/>
	</g>
</g>
</svg>
